<?xml version="1.0" encoding="utf-8"?>
<!-- Generator: Adobe Illustrator 23.1.0, SVG Export Plug-In . SVG Version: 6.00 Build 0)  -->
<svg version="1.1" id="Layer_1" xmlns="http://www.w3.org/2000/svg" xmlns:xlink="http://www.w3.org/1999/xlink" x="0px" y="0px"
	 viewBox="0 0 640 256" style="enable-background:new 0 0 640 256;" xml:space="preserve">
<style type="text/css">
	.st0{fill:#F4D7C8;}
	.st1{fill:#ECBBA3;}
	.st2{fill:#E94444;}
	.st3{fill:#D83131;}
	.st4{fill:#F3F0F3;}
	.st5{fill:#E2DEE2;}
</style>
<g>
	<g>
		<path class="st0" d="M48.2,229.6c-4.4,0-7.9-3.5-7.9-7.9V107.4H56v114.3C56,226.1,52.5,229.6,48.2,229.6z"/>
	</g>
	<g>
		<path class="st1" d="M56.1,107.4v114.3c0,4.4-3.5,7.9-7.9,7.9c-1.4,0-2.8-0.4-4-1.1c2.3-1.4,3.9-3.9,3.9-6.8V107.4H56.1z"/>
	</g>
	<g>
		<circle class="st2" cx="48.2" cy="71.3" r="42.9"/>
	</g>
	<g>
		<path class="st3" d="M91.1,71.3c0,23.7-19.2,42.9-42.9,42.9c-6.4,0-12.5-1.4-18-4c3.3,0.8,6.8,1.3,10.4,1.3
			c23.7,0,42.9-19.2,42.9-42.9c0-17.3-10.2-32.1-24.9-38.9C77.2,34.4,91.1,51.2,91.1,71.3L91.1,71.3z"/>
	</g>
	<g>
		<path class="st4" d="M48.2,28.4c-17.5,0-32.5,10.5-39.2,25.5c3.1,2.4,6.7,4.3,10.5,5.3c0,0,0,0,0,0c2.4,0.7,4,2.8,4,5.2v18.3
			c0,5.4,4.3,9.7,9.7,9.7s9.7-4.3,9.7-9.7V70.3c0-4,4.2-6.6,7.8-4.9c4.3,2.1,8.3,4.7,12.2,7.4c5.3,3.6,10.6,7.5,16.9,8.9
			c3.3,0.7,6.8,0.6,10.1-0.2c0.8-3.4,1.3-6.9,1.2-10.5C90.9,47.4,71.8,28.4,48.2,28.4L48.2,28.4z"/>
	</g>
	<g>
		<path class="st5" d="M91.1,71.3c0,1.5-0.1,3-0.2,4.4c-0.2,1.5-0.4,3.1-0.7,4.6c-0.1,0.4-0.2,0.8-0.3,1.2c-2.8,0.7-5.7,0.9-8.5,0.5
			c1.4-4.2,2.1-8.7,2.1-13.4c0-17.3-10.2-32.1-24.9-38.9c1.6,0.7,3.5,1,5.1,1.6c1.7,0.7,3.3,1.4,4.9,2.3c3.1,1.7,6.1,3.8,8.7,6.3
			c5.3,4.9,9.3,11.1,11.6,17.9c0.6,1.7,1,3.4,1.4,5.1C90.8,65.7,91.1,68.5,91.1,71.3L91.1,71.3z"/>
	</g>
	<path d="M93.4,79.4c0.5-2.6,0.7-5.3,0.7-8c0-25.3-20.6-45.9-45.9-45.9c-12.7,0-25,5.4-33.6,14.7c-8,8.6-12.3,19.6-12.3,31.3
		c0,0.4,0,0.8,0,1.2c0,1.7,1.4,3,3.1,3c1.7,0,3-1.4,3-3.1c0-0.4,0-0.7,0-1.1c0-4.5,0.7-8.8,2.1-12.8c2.6,1.6,5.3,2.8,8.2,3.6l0.1,0
		c1.1,0.3,1.8,1.2,1.8,2.3v18.3c0,7,5.7,12.7,12.7,12.7c7,0,12.7-5.7,12.7-12.7V70.3c0-1.2,0.8-1.8,1.1-2c0.3-0.2,1.2-0.6,2.3-0.1
		c2.2,1.1,4.4,2.3,6.5,3.7c7.5,4.7,14.4,10.9,23.2,12.9c2.1,0.5,4.2,0.6,6.4,0.5c-5.7,15.1-20.3,26-37.4,26
		c-16.6,0-31.6-10.4-37.4-26c-0.6-1.6-2.3-2.4-3.9-1.8c-1.6,0.6-2.4,2.3-1.8,3.9c3.2,8.7,9,16.1,16.6,21.5c4.8,3.4,10,5.8,15.6,7.1
		v105.8c0,6,4.9,10.9,10.9,10.9s10.9-4.9,10.9-10.9v-49.1c0-1.7-1.4-3-3-3s-3,1.4-3,3v49.1c0,2.7-2.2,4.9-4.9,4.9
		c-2.7,0-4.9-2.2-4.9-4.9V117c1.6,0.2,3.2,0.3,4.9,0.3c1.6,0,3.3-0.1,4.9-0.3v41.5c0,1.7,1.4,3,3,3s3-1.4,3-3c0,0,0-42.6,0-42.6
		c0.2-0.4,2.8-0.9,3.2-1.1c14.8-4.9,26.3-16.8,30.3-31.9C92.9,81.7,93.2,80.6,93.4,79.4L93.4,79.4z M80.4,78.8
		c-5.4-1.2-10.3-4.6-15-7.9l-0.8-0.5c-3.9-2.7-8.1-5.5-12.6-7.7c-2.6-1.3-5.7-1.1-8.2,0.5c-2.5,1.6-4,4.2-4,7.1v12.4
		c0,3.7-3,6.7-6.7,6.7c-3.7,0-6.7-3-6.7-6.7V64.5c0-3.8-2.6-7.1-6.2-8.1l-0.1,0c-2.6-0.7-5.1-1.9-7.4-3.4
		c6.7-12.7,20-21.5,35.4-21.5c22,0,39.9,17.9,39.9,39.9c0,2.5-0.2,4.9-0.7,7.3c0,0.1,0,0.2-0.1,0.3C85,79.4,82.6,79.3,80.4,78.8
		L80.4,78.8z"/>
</g>
<g>
	<path class="st2" d="M230.1,146.7c-2,5.3-4.3,10.6-6.8,16c-2.5,5.3-5.1,10.4-7.9,15.2c-2.8,4.8-5.7,9.3-8.7,13.4
		c-3,4.2-6.1,7.7-9.2,10.7c-3.1,3-6.3,5.2-9.4,6.8c-3.2,1.6-6.2,2.2-9.2,1.9c-2.4-0.4-4.6-1.4-6.4-3.1c-1.8-1.7-3.3-3.9-4.5-6.6
		c-1.2-2.7-2.1-5.8-2.6-9.4c-0.5-3.6-0.7-7.4-0.5-11.5c0.4-5.2,1.4-11.1,2.9-17.7c1.5-6.6,3.4-13.6,5.7-20.8c2.3-7.3,5-14.6,8-22.1
		c3-7.5,6.3-14.8,9.8-21.9c3.5-7.1,7.2-13.7,11.1-19.9c3.9-6.2,7.9-11.6,11.9-16.2c4-4.6,8-8.3,12.1-11c4-2.7,8-4,11.9-4
		c2.3,0,4.3,0.4,5.8,1.2c1.5,0.8,2.7,1.9,3.6,3.3c0.8,1.4,1.4,3.1,1.6,5.1c0.2,2,0.2,4.1,0,6.5c-0.2,2.5-0.8,5.1-1.6,7.9
		c-0.8,2.8-1.8,5.7-2.9,8.6c-1.1,3-2.4,5.9-3.7,8.9c-1.4,3-2.8,5.8-4.2,8.6c-0.3,0.5-0.7,1.1-1.2,1.8c-0.5,0.6-1,1.3-1.6,1.9
		c-0.6,0.6-1.2,1.1-2,1.5c-0.7,0.4-1.5,0.6-2.2,0.6c-0.6,0-1.4-0.3-2.4-1c-1-0.7-2.2-1.8-3.8-3.4c1.3-1.4,2.8-3.4,4.4-6
		c1.6-2.6,3.3-5.5,4.9-8.6c1.6-3.1,3-6.2,4.3-9.4c1.3-3.2,2.2-5.9,2.8-8.3c0.2-0.9,0.4-1.7,0.6-2.3c0.1-0.6,0.2-1.2,0.2-1.6
		c0.2-1.1,0-1.9-0.7-2.3c-0.6-0.5-1.5-0.8-2.7-1c-2.4,0.4-5.1,2-7.9,4.9c-2.9,2.9-5.8,6.6-8.8,11c-3,4.4-6.1,9.4-9.1,14.9
		c-3,5.5-5.8,11-8.5,16.6c-2.6,5.6-5,10.9-7.2,16.1c-2.1,5.2-3.9,9.6-5.2,13.2c-1.4,4.1-2.8,8.4-4.2,12.7c-1.4,4.4-2.6,9-3.7,13.8
		c-0.7,2.7-1.2,5.3-1.6,7.8c-0.4,2.5-0.8,4.8-1.1,6.9c-0.6,5.3-0.5,9.7,0.2,13.1c0.7,3.4,2.2,5.2,4.4,5.4c2.3,0.3,4.7-0.3,7.2-1.7
		c2.5-1.4,4.9-3.4,7.4-6.1c2.5-2.6,4.9-5.7,7.3-9.2c2.4-3.5,4.7-7.3,6.9-11.2c2.2-4,4.3-8,6.2-12c1.9-4,3.7-7.9,5.2-11.5
		c0.2-0.5,0.7-0.8,1.4-0.6c0.7,0.1,1.4,0.5,2.1,1c0.7,0.5,1.2,1.1,1.6,1.9c0.4,0.8,0.4,1.5,0,2.1L230.1,146.7z"/>
	<path class="st2" d="M264.9,131.9c-0.1,0.5-0.3,1-0.7,1.3c-0.4,0.3-0.8,0.5-1.4,0.7c-0.5,0.1-1.1,0.2-1.7,0.2
		c-0.6,0-1.1-0.1-1.5-0.4c0.8,0.8,1.6,1.8,2.3,2.9c0.7,1.1,1.3,2.3,1.8,3.6c0.5,1.3,0.8,2.7,0.9,4c0.1,1.4,0,2.7-0.3,4
		c-0.2,0.6-0.5,1.3-0.8,2.1c-0.3,0.8-0.6,1.6-0.9,2.4c-0.7,1.7-1.3,3.6-2,5.6c-0.7,2-1.3,4-1.9,5.9c-0.6,1.9-1.1,3.7-1.6,5.4
		c-0.4,1.7-0.7,3.1-0.8,4.3c0,0.2,0,0.3-0.1,0.4c-0.1,0.1-0.2,0.2-0.2,0.3h0.6c1.8-0.9,3.5-2.4,5.2-4.5c1.7-2.1,3.3-4.5,4.9-7.2
		c1.6-2.7,3.1-5.6,4.5-8.6c1.5-3.1,2.8-6,4.1-8.8c0.5-0.7,0.8-1.4,1.1-1.9c0.2-0.5,0.5-1.1,0.7-1.8c0.2-0.5,0.7-0.6,1.3-0.3
		c0.7,0.2,1.3,0.7,1.9,1.3c0.6,0.6,1.1,1.4,1.4,2.3c0.4,0.9,0.4,1.6,0,2.3l-2.6,5.5v0.1c-2.6,5.4-5.2,10.7-8,16
		c-2.8,5.3-5.8,10-9.2,14.2c-0.5,0.7-1.2,1.5-2,2.4c-0.8,0.9-1.7,1.7-2.7,2.5c-1,0.8-2,1.4-3.2,1.9c-1.1,0.5-2.3,0.7-3.5,0.6
		c-2.9-0.4-4.9-1.9-6-4.7c-1.2-2.7-1.6-6.2-1.3-10.3c-2.7,3.8-5.4,7.1-8.1,9.9c-2.7,2.8-5.4,4.2-7.9,4.3c-2.3-0.4-4.1-1.3-5.4-2.9
		c-1.3-1.6-2.3-3.5-3-5.7c-0.7-2.2-1-4.5-1.1-7.1c-0.1-2.5,0-4.9,0.1-7.1c0.2-2,0.5-3.7,0.8-4.9c0.6-3.4,1.6-7.1,2.9-11.1
		c1.4-4,3-8,4.9-12.1c1.9-4,4-7.9,6.3-11.6c2.3-3.7,4.7-7.1,7.3-10c2.6-2.9,5.2-5.3,7.8-7c2.6-1.7,5.3-2.6,7.9-2.6
		c0.8,0,1.5,0.1,2.2,0.3c0.7,0.2,1.5,0.5,2.3,0.8c1.4,0.7,2.5,1.9,3.3,3.5c0.7,1.6,1.2,3.5,1.5,5.6c0.3,2.1,0.4,4.4,0.3,6.9
		C265.5,127.1,265.3,129.5,264.9,131.9z M254.5,131.9c0.6-0.5,1.3-0.5,2.1-0.3c0.8,0.3,1.6,0.8,2.5,1.5c-0.3-0.5-0.4-1-0.3-1.5
		c0.1-0.3,0.1-0.6,0-1c0-0.4,0-0.7,0-1.1c0.1-0.9,0.1-1.9,0.1-2.9c0-1-0.1-1.9-0.3-2.8c-0.2-0.9-0.5-1.6-0.9-2.1
		c-0.4-0.5-1-0.9-1.7-1c-2.2-0.1-4.5,1.1-6.8,3.6c-2.3,2.5-4.5,5.7-6.7,9.5c-2.1,3.8-4.1,7.9-5.8,12.3c-1.8,4.4-3.1,8.4-4.1,11.9
		c-0.3,1-0.6,2.3-0.9,3.8c-0.3,1.5-0.5,3-0.6,4.5c-0.1,1-0.2,2-0.2,2.9c0,0.9,0.1,1.7,0.4,2.3s0.7,1,1.2,1.2
		c0.5,0.2,1.3,0.1,2.2-0.3c0.9-0.4,2-1.4,3.4-3.2c1.4-1.7,2.8-3.8,4.3-6.1c1.5-2.3,3-4.8,4.5-7.5c1.5-2.6,2.7-5,3.7-7.1
		c0.9-2.7,1.7-5.4,2.5-8c0.7-2.6,1.3-4.8,1.6-6.6L254.5,131.9z"/>
	<path class="st2" d="M321.2,160.3c-1.1,2.4-2.6,5.3-4.5,8.6c-1.8,3.4-3.9,6.7-6.1,9.9c-2.2,3.2-4.4,5.9-6.7,8.2
		c-2.3,2.2-4.4,3.4-6.5,3.4c-1.2,0-2.4-0.3-3.6-1c-1.1-0.7-2.1-1.8-2.8-3.2c-0.7-1.5-1.2-3.4-1.5-5.7c-0.3-2.3-0.2-5.1,0.2-8.3
		c0.4-2.7,0.9-5.4,1.6-8.1c0.6-2.6,1.4-5.4,2.3-8.4c0.9-2.9,2-6.1,3.2-9.5c1.2-3.4,2.6-7.3,4.1-11.6c0.7-1.8,1.3-3.5,1.7-5.1
		c0.4-1.6,0.7-2.9,0.8-3.9l-4.3,5.6c-2.5,3.2-4.8,6.4-6.9,9.6c-2.1,3.2-4.3,6.7-6.5,10.5c-2,5.7-3.8,11.4-5.4,17.3
		c-1.6,5.9-2.9,11.9-3.9,17.9c-0.2,1-0.9,1.5-1.9,1.4c-1-0.1-2.1-0.5-3.2-1.3c-1.1-0.8-2.1-1.8-2.9-2.9c-0.9-1.2-1.3-2.4-1.2-3.6
		c0.5-4.1,1.2-8.1,2.1-12c0.9-3.9,1.8-7.7,2.9-11.5c1.1-3.8,2.2-7.5,3.4-11.2c1.2-3.7,2.5-7.4,3.7-11.2c1.4-4.4,2.8-8.7,4.2-12.8
		c1.4-4.2,2.6-8.2,3.7-12c0.7-0.5,1.6-0.6,2.6-0.1c1,0.5,2,1.3,3,2.4c1,1.1,1.8,2.4,2.5,4c0.7,1.6,1.2,3.3,1.3,5
		c2.6-3.3,5.1-6.1,7.8-8.4c2.6-2.3,5.2-3.6,7.9-3.8c0.8,0,1.7,0.6,2.5,1.7c0.8,1.1,1.5,2.5,2.1,4.2c0.6,1.6,1,3.4,1.2,5.3
		c0.2,1.9,0.1,3.6-0.4,5.1c-1.5,4.7-3.1,9-4.5,13.1c-1.5,4.1-2.8,7.6-3.8,10.5c-1,2.6-1.8,4.9-2.6,7.1c-0.8,2.1-1.5,4.3-2.1,6.4
		s-1.2,4.2-1.7,6.4c-0.5,2.2-1,4.6-1.4,7.1c0.1-0.2,0.3-0.5,0.6-0.8h-0.1c1.8-1.4,4-3.7,6.6-7c2.6-3.3,5.4-7.8,8.2-13.4
		c0.8-1.5,1.5-2.9,2.2-4.2c0.7-1.4,1.4-2.7,2-4.1l1.7-4c0.2-0.5,0.7-0.6,1.3-0.3c0.7,0.2,1.3,0.7,1.8,1.3c0.6,0.6,1,1.4,1.3,2.3
		c0.3,0.9,0.3,1.6,0,2.3l0.1-0.3l-6.1,13.2L321.2,160.3z"/>
	<path class="st2" d="M357,158.3c-1,2.7-1.9,5.3-2.5,7.9c-0.7,2.7-1.1,4.9-1.4,6.9c-0.1,0.8-0.3,1.3-0.4,1.5h0.9
		c1.8-0.9,3.5-2.4,5.2-4.5c1.7-2.1,3.3-4.5,4.9-7.2c1.6-2.7,3.1-5.6,4.5-8.6c1.5-3.1,2.8-6,4.1-8.8c0.5-0.7,0.8-1.4,1.1-1.9
		c0.2-0.5,0.5-1.1,0.7-1.8c0.2-0.5,0.7-0.6,1.3-0.3c0.7,0.2,1.3,0.7,1.9,1.3c0.6,0.6,1.1,1.4,1.4,2.3c0.4,0.9,0.4,1.6,0,2.3
		l-2.6,5.5v0.1c-2.6,5.4-5.2,10.7-8,16c-2.8,5.3-5.8,10-9.2,14.2c-0.5,0.7-1.2,1.5-2,2.4c-0.8,0.9-1.7,1.7-2.7,2.5
		c-1,0.8-2,1.4-3.2,1.9c-1.1,0.5-2.3,0.7-3.5,0.6c-2.9-0.4-4.9-1.9-6-4.7c-1.2-2.7-1.6-6.2-1.3-10.3c-2.7,3.8-5.4,7.1-8.1,9.9
		c-2.7,2.8-5.4,4.2-7.9,4.3c-2.3-0.4-4.1-1.3-5.4-2.9c-1.3-1.6-2.3-3.5-3-5.7c-0.7-2.2-1-4.5-1.1-7.1c-0.1-2.5,0-4.9,0.1-7.1
		c0.2-2,0.5-3.7,0.8-4.9c0.6-3.4,1.6-7.1,2.9-11.1c1.4-4,3-8,4.9-12.1c1.9-4,4-7.9,6.3-11.6c2.3-3.7,4.7-7.1,7.3-10
		c2.6-2.9,5.2-5.3,7.8-7c2.6-1.7,5.3-2.6,7.9-2.6c0.8,0,1.5,0.1,2.2,0.3c0.7,0.2,1.5,0.5,2.3,0.8c1.6,0.9,2.8,2.4,3.7,4.5l0.8-1.8
		l3.4-7.9c1.5-3.4,2.9-6.9,4.3-10.5c1.4-3.7,2.7-7.2,3.9-10.8c1.2-3.5,2.3-6.9,3.3-10.1c1-3.2,1.8-6.2,2.5-8.8
		c0.9-0.7,2-0.7,3.3,0.1c1.3,0.8,2.5,2,3.6,3.6c1.1,1.6,1.9,3.5,2.4,5.7c0.5,2.2,0.5,4.3-0.2,6.3c-0.4,1.1-1,2.9-2,5.5
		c-1,2.6-2.1,5.4-3.3,8.6c-1.3,3.2-2.6,6.6-4.1,10.1c-1.5,3.5-2.8,6.8-4.1,9.9l-3.1,7.5l0.1-0.1c-2.5,5.8-5,11.7-7.5,17.9
		c-2.5,6.2-4.9,12.9-7.1,20H357z M331.6,172.6c0.8-0.4,1.9-1.4,3.3-3.1c1.4-1.7,2.8-3.7,4.3-6c1.5-2.3,3-4.8,4.4-7.4
		c1.5-2.6,2.7-5,3.8-7.1l1.5-4.7c2.1-6.1,4.4-12.2,6.9-18.2c-0.1-1.4-0.4-2.6-0.8-3.6c-0.4-1-1.1-1.6-2.1-1.8
		c-2.2-0.1-4.5,1.1-6.8,3.6c-2.3,2.5-4.5,5.7-6.7,9.5c-2.1,3.8-4.1,7.9-5.8,12.3c-1.8,4.4-3.1,8.4-4.1,11.9c-0.3,1-0.6,2.3-0.9,3.8
		c-0.3,1.5-0.5,3-0.6,4.5c-0.1,1-0.2,2-0.2,2.9c0,0.9,0.1,1.7,0.4,2.3s0.7,1,1.2,1.2C329.9,173,330.6,172.9,331.6,172.6z"/>
	<path class="st2" d="M384.8,108.7c0.9-0.6,1.9-0.5,3.2,0.3c1.2,0.8,2.3,2.1,3.3,3.8c1,1.7,1.7,3.7,2.1,5.9c0.4,2.2,0.4,4.3-0.2,6.4
		c-0.3,0.8-0.7,2.1-1.3,3.7c-0.6,1.6-1.3,3.5-2.1,5.6l0.1-0.1c-1.2,3-2.5,6.4-3.9,10.1c-1.4,3.7-2.7,7.4-4,11
		c-1.2,3.7-2.3,7.1-3.3,10.3c-0.9,3.2-1.5,5.8-1.7,7.7l-0.4,1.1h0.8c1.7-0.9,3.4-2.4,5.1-4.5c1.7-2.1,3.3-4.4,4.8-7
		c1.5-2.6,3-5.4,4.5-8.4c1.4-3,2.8-5.9,4.1-8.7h-0.1l1.5-3c1.7-5,3.4-10.4,5.1-16.1c1.8-5.7,3.5-11.6,5.2-17.7
		c0.9-0.6,2-0.6,3.3,0.2c1.3,0.8,2.5,2,3.5,3.6c1.1,1.6,1.9,3.5,2.4,5.7c0.5,2.1,0.5,4.3-0.1,6.4l-19.1,54.1
		c-1.8,5.1-3.5,10-5.2,14.5c-1.7,4.6-3.4,8.9-5.1,13c1.8,1.9,3.5,4,5.2,6.1c1.7,2.1,3.3,4.4,5,6.6v-0.3c0.2,0.3,0.4,0.6,0.5,1
		c0.2,0.4,0.4,0.7,0.6,1c0.6,0.7,0.8,1.6,0.6,2.6c-0.2,1-0.6,2-1.3,3c-0.7,1-1.5,1.9-2.5,2.8c-1,0.9-2,1.6-2.9,2.3
		c-1,0.6-1.9,1-2.7,1.2c-0.8,0.2-1.4,0.1-1.7-0.3l-3.3-4.7l-4.5-6.2c-4.4,8.4-9.1,14.9-14.2,19.6c-5.1,4.7-10.9,7-17.7,7
		c-2.1,0-4.2-0.4-6.2-1.2c-2-0.8-3.7-2-5.2-3.6c-1.5-1.6-2.6-3.8-3.3-6.4c-0.7-2.7-0.9-5.9-0.5-9.7c0.5-4.8,1.7-9.3,3.5-13.5
		c1.8-4.2,4-7.8,6.7-10.8c2.6-3.1,5.6-5.4,8.8-7.1c3.2-1.7,6.5-2.5,9.8-2.5c1.8,0,3.5,0.1,5,0.3c1.5,0.2,2.8,0.5,4,1
		c1.2,0.4,2.3,0.9,3.4,1.5c1.1,0.6,2.2,1.3,3.3,2c1.1-2.9,2.2-5.8,3.3-8.7c1.1-2.9,2.2-5.8,3.3-8.8l-1.6,2.1
		c-0.5,0.7-1.2,1.5-2.1,2.4c-0.8,0.9-1.8,1.7-2.8,2.4c-1,0.7-2.1,1.3-3.2,1.8c-1.1,0.5-2.3,0.8-3.4,0.8c-2.6-0.2-4.3-1.9-5.1-5.1
		s-1.1-7.1-0.6-11.6c0.1-1,0.3-2.1,0.4-3.3c0.1-1.2,0.3-2.3,0.6-3.3c0.5-2,1.1-4.3,1.8-6.9s1.5-5.3,2.4-8.1c0.9-2.8,1.8-5.7,2.8-8.6
		c1-3,1.9-5.9,2.8-8.8c1.5-4.7,2.9-9.1,4.2-13.4c1.3-4.2,2.3-7.8,3.1-10.6L384.8,108.7z M348.1,237.7c2,0,4-0.6,6-1.8
		c2-1.2,3.9-2.9,5.8-5.1c1.9-2.2,3.8-4.8,5.7-7.8c1.9-3,3.7-6.3,5.5-10c-3-2.1-6.6-3.2-10.6-3.3c-2,0-4.1,0.3-6.4,1
		c-2.3,0.7-4.5,1.8-6.5,3.2c-2,1.5-3.7,3.3-5.2,5.5c-1.5,2.2-2.3,4.8-2.5,7.8c-0.2,2.1-0.1,3.8,0.4,5.1c0.5,1.3,1.1,2.4,2,3.2
		c0.8,0.8,1.8,1.3,2.9,1.6C346.1,237.5,347.1,237.7,348.1,237.7z"/>
	<path d="M519.2,92.4c-1.6,1.6-3.2,2.3-4.9,2.3c-1.4,0-2.5-0.6-3.5-1.7c-1-1.1-1.7-2.5-2.3-4c-0.6-1.5-1-3-1.2-4.5
		c-0.2-1.5-0.1-2.5,0.1-3.2c1.4-1,2.8-2.2,4.3-3.5c1.5-1.3,2.9-2.8,4.1-4.3c1.3-1.6,2.4-3.2,3.3-5c0.9-1.8,1.5-3.6,1.7-5.5
		c0.1-1,0-1.9-0.5-2.7s-1.4-1.4-2.7-1.6c-0.5-0.2-1-0.3-1.4-0.3c-0.5,0-1,0-1.4,0c-2.1,0-4.4,0.3-7,1c-2.6,0.7-5.2,1.7-7.8,3
		c-2.6,1.3-5.2,2.9-7.8,4.9c-2.5,1.9-4.8,4.2-6.8,6.8c-2,2.6-3.7,5.5-5,8.6c-1.3,3.2-2,6.6-2.2,10.3c-0.1,2.5,0,4.9,0.4,7.3
		c0.4,2.4,0.9,4.8,1.7,7.1c0.7,2.3,1.5,4.6,2.5,6.9c0.9,2.2,1.9,4.5,2.9,6.8c1.2,2.8,2.4,5.7,3.5,8.6c1.2,2.9,2.1,5.9,2.9,9
		c0.7,3.2,1.2,6.4,1.5,9.8c0.3,3.4,0.1,7-0.5,10.8c-1,5.5-3,11.1-5.8,16.9c-2.9,5.8-6.4,11-10.4,15.6c-4.1,4.7-8.5,8.4-13.3,11.2
		c-4.8,2.8-9.6,4.1-14.5,3.8c-2.6-0.4-5.4-1.3-8.3-2.9c-2.9-1.6-5.5-3.8-7.9-6.6c-2.4-2.8-4.2-6.2-5.6-10.3
		c-1.4-4.1-1.9-8.8-1.4-14.2c0.5-5.8,1.9-11.5,4.2-16.9c2.3-5.4,5.9-10.7,10.8-15.8l-0.4,0.1c0.5-0.6,1.4-0.5,2.7,0.4
		c1.3,0.9,2.7,2.1,4.1,3.6c1.4,1.5,2.5,3.1,3.5,4.7c1,1.6,1.4,2.8,1.1,3.6l-2.5,2.2c-1.4,1.1-2.7,2.2-4.1,3.4
		c-1.3,1.2-2.6,2.5-3.7,4c-1.2,1.5-2.2,3.2-3,5.1c-0.8,1.9-1.4,4-1.6,6.4c-0.4,3.7-0.2,6.6,0.6,8.9c0.7,2.3,1.8,4.1,3.3,5.3
		c1.5,1.3,3.1,2.1,5,2.6c1.9,0.5,3.8,0.7,5.8,0.7c3.4,0,6.6-0.8,9.6-2.3c3-1.5,5.7-3.6,8.1-6.4c2.4-2.7,4.3-6.1,5.9-10
		c1.5-3.9,2.6-8.4,3.1-13.3c0.2-2.5,0.2-4.9-0.1-7.3c-0.3-2.4-0.8-4.7-1.6-6.9c-0.7-2.2-1.6-4.4-2.5-6.6c-1-2.1-2-4.3-3-6.4
		c-1.2-2.6-2.4-5.1-3.5-7.7c-1.1-2.6-2.1-5.3-2.8-8.2c-0.7-2.8-1.2-5.8-1.5-8.8c-0.2-3-0.1-6.3,0.5-9.7c0.9-5,2.4-9.9,4.5-14.5
		c2.1-4.7,4.6-9,7.6-13.1c2.9-4.1,6.2-7.7,9.8-11c3.6-3.3,7.3-6.1,11.1-8.4c3.8-2.3,7.6-4,11.5-5.1c3.8-1.1,7.5-1.6,10.9-1.3
		c2.1,0.3,3.9,1,5.2,2.1c1.3,1.1,2.4,2.6,3.1,4.4c0.7,1.8,1.2,3.9,1.3,6.2c0.1,2.4,0.1,4.9-0.2,7.5c-0.7,5.8-1.8,10.8-3.3,15.1
		c-1.6,4.3-3.5,8.3-5.8,12L519.2,92.4z"/>
	<path d="M548.8,160.3c-1.1,2.4-2.6,5.3-4.5,8.6c-1.8,3.4-3.9,6.7-6.1,9.9c-2.2,3.2-4.4,5.9-6.7,8.2c-2.3,2.2-4.4,3.4-6.5,3.4
		c-1.2,0-2.4-0.3-3.6-1c-1.1-0.7-2.1-1.8-2.8-3.2c-0.7-1.5-1.2-3.4-1.5-5.7c-0.3-2.3-0.2-5.1,0.2-8.3c0.4-2.7,0.9-5.4,1.6-8.1
		c0.6-2.6,1.4-5.4,2.3-8.4c0.9-2.9,2-6.1,3.2-9.5c1.2-3.4,2.6-7.3,4.1-11.6c0.7-1.8,1.3-3.5,1.7-5.1c0.4-1.6,0.7-2.9,0.8-3.9
		l-4.3,5.6c-2.3,2.9-4.5,5.9-6.5,8.9c-2,3-4,6.3-6.1,9.7c-2.1,6-4.1,12.1-5.9,18.2c-1.8,6.1-3.2,12.3-4.3,18.6
		c-0.2,1-0.9,1.5-1.9,1.4c-1-0.1-2.1-0.5-3.2-1.3c-1.1-0.8-2.1-1.8-2.9-2.9c-0.9-1.2-1.3-2.4-1.2-3.6c0.8-5.6,1.9-11.2,3.3-16.9
		c1.5-5.7,3.1-11.3,5-17c1.9-5.7,4-11.3,6.2-17c2.2-5.7,4.4-11.3,6.6-16.9l3.6-8.8c1.4-3.5,2.7-7,4.1-10.6c1.3-3.6,2.6-7.1,3.8-10.6
		c1.2-3.5,2.3-6.8,3.4-10.1c1-3.2,1.9-6.2,2.6-9c1-0.7,2.1-0.7,3.3,0.1c1.3,0.8,2.4,2,3.5,3.6c1,1.6,1.8,3.5,2.4,5.7
		c0.5,2.1,0.5,4.2,0,6.2c-0.4,1.4-1.1,3.3-2.1,5.9c-1,2.6-2.1,5.4-3.3,8.6c-1.2,3.2-2.6,6.4-4,9.9c-1.4,3.4-2.8,6.7-4.1,9.8
		l-1.5,3.6c2-2.2,4.1-4,6.1-5.5c2.1-1.5,4.1-2.3,6.1-2.6c0.8,0,1.7,0.6,2.5,1.7c0.8,1.1,1.5,2.5,2.1,4.2c0.6,1.6,1,3.4,1.2,5.3
		c0.2,1.9,0.1,3.6-0.4,5.1c-1.5,4.7-3.1,9-4.5,13.1c-1.5,4.1-2.8,7.6-3.8,10.5c-1,2.6-1.8,4.9-2.6,7.1c-0.8,2.1-1.5,4.3-2.1,6.4
		c-0.6,2.1-1.2,4.2-1.7,6.4c-0.5,2.2-1,4.6-1.4,7.1c0.1-0.2,0.3-0.5,0.6-0.8h-0.1c1.8-1.4,4-3.7,6.6-7c2.6-3.3,5.4-7.8,8.2-13.4
		c0.8-1.5,1.5-2.9,2.2-4.2c0.7-1.4,1.4-2.7,2-4.1l1.7-4c0.2-0.5,0.7-0.6,1.3-0.3c0.7,0.2,1.3,0.7,1.8,1.3c0.6,0.6,1,1.4,1.3,2.3
		c0.3,0.9,0.3,1.6,0,2.3l0.1-0.3l-6.1,13.2L548.8,160.3z"/>
	<path d="M580.7,107.8c2.4,0.7,4.1,2.5,5.2,5.3c1.1,2.8,1.7,6,1.8,9.6c0.6,1.3,1,2.8,1.2,4.7c0.2,1.8,0.4,3.9,0.4,6.2
		c-0.1,0.7-0.2,1.5-0.2,2.2c0,0.7-0.1,1.6-0.2,2.6c-0.4,3.9-1.2,7.9-2.3,12c-1.1,4.1-2.4,8-4,11.8c-1.5,3.8-3.3,7.4-5.3,10.8
		c-2,3.4-4,6.4-6.2,8.9c-2.1,2.5-4.3,4.5-6.6,6c-2.2,1.5-4.4,2.2-6.5,2.2c-3.9-0.1-7-2.1-9.5-5.9c-2.5-3.8-3.8-9.8-3.9-17.8
		c0-1,0-2.1,0.1-3.2c0.1-1.1,0.1-2.4,0.3-3.6c0.4-3.9,1.2-8,2.5-12.1c1.2-4.2,2.8-8.2,4.5-12.1c1.8-3.9,3.8-7.6,6.1-11.1
		c2.3-3.5,4.7-6.5,7.2-9c2.5-2.5,5-4.4,7.6-5.8C575.7,108,578.2,107.5,580.7,107.8z M574.5,143.9c-0.5-0.3-0.8-0.9-0.9-1.9
		c-0.1-1-0.2-2.1-0.2-3.4s0.1-2.5,0.2-3.9c0.1-1.4,0.3-2.6,0.4-3.6c0.2-1.2,0.5-2.4,1.1-3.5c0.6-1.1,1.2-2.1,1.8-3
		c0.7-0.9,1.3-1.6,1.9-2.3c0.6-0.6,1.1-1.1,1.5-1.4c-0.2-0.2-0.6-0.3-1.2-0.3c-1.3,0.2-2.8,1-4.5,2.4c-1.7,1.4-3.4,3.2-4.9,5.3
		c-1.6,2.3-3.1,4.8-4.5,7.6c-1.4,2.8-2.6,5.7-3.7,8.7c-1.1,3-2,6-2.8,9c-0.7,3-1.2,5.7-1.5,8.3c-0.4,3.5-0.3,6.4,0.3,8.7
		c0.6,2.3,1.9,3.6,3.8,3.8c1.4,0.1,2.9-0.5,4.5-1.7c1.5-1.2,3.1-2.9,4.5-5c1.5-2.1,2.9-4.5,4.3-7.3c1.4-2.8,2.7-5.7,3.8-8.8
		c1.1-3.1,2.1-6.1,2.9-9.1c0.8-3,1.3-5.8,1.5-8.4l0.2-0.7c-0.5,0-1,0.3-1.7,0.9c-0.6,0.6-1.2,1.3-1.8,2.1c-0.6,0.8-1.1,1.7-1.5,2.6
		c-0.4,0.9-0.8,1.7-0.9,2.5L574.5,143.9z"/>
	<path d="M602.5,109.3c0.7-0.5,1.5-0.6,2.5-0.2c1,0.4,1.9,1.1,2.9,2.2c1,1.1,1.8,2.3,2.5,3.8c0.7,1.5,1.2,3,1.5,4.7
		c3.1-3.5,6.2-6.3,9.5-8.4c3.2-2.1,6.2-2.9,8.8-2.4c1.8,0.5,3.3,1.3,4.5,2.6c1.2,1.3,2,2.9,2.6,4.8c0.6,1.9,0.9,4,1,6.4
		c0.1,2.3-0.1,4.8-0.4,7.3c-0.5,4.3-1.3,8.4-2.4,12.3c-1.7,5.7-3.8,11.2-6.4,16.6c-2.6,5.4-5.4,10.3-8.5,14.7
		c-3.1,4.4-6.3,8-9.7,10.9c-3.4,2.9-6.7,4.6-10,5.1c-2.7-0.1-4.9-1-6.5-2.8c-1.6-1.8-2.7-4-3.4-6.6c-0.8,2.8-1.5,5.7-2.1,8.5
		c-0.6,2.8-1.2,5.8-1.7,8.8c-0.5,3-1,6.1-1.5,9.3c-0.5,3.2-1,6.5-1.6,10c-0.2,1.1-0.8,1.6-1.8,1.6c-1,0-2.1-0.4-3.2-1.2
		c-1.1-0.8-2.1-1.8-3-2.9c-0.9-1.2-1.3-2.4-1.3-3.7c0.2-6.9,1-13.7,2.3-20.2c1.3-6.5,2.9-12.9,4.8-19.2c1.9-6.3,4-12.6,6.2-18.8
		c2.3-6.2,4.5-12.5,6.8-18.9c1.4-4.4,2.7-8.6,4.1-12.7C600.4,116.7,601.5,112.8,602.5,109.3z M598.7,160.3c-0.1,0.2-0.2,0.3-0.2,0.4
		c-0.1,0.5-0.2,1.1-0.3,1.8c-0.1,0.6-0.2,1.3-0.3,1.9c-0.2,2-0.1,3.8,0.2,5.4c0.3,1.6,1.1,2.5,2.5,2.7c1.3,0.2,2.8-0.5,4.5-1.9
		c1.7-1.5,3.5-3.4,5.4-6c1.8-2.5,3.7-5.4,5.5-8.7c1.8-3.3,3.5-6.6,5-9.9c1.5-3.3,2.8-6.6,3.8-9.8c1-3.2,1.7-6,2-8.4
		c0.3-2.8-0.3-4.3-1.7-4.4c-1.3-0.1-2.8,0.2-4.3,1c-1.6,0.7-3.2,1.8-4.9,3.2c-1.7,1.4-3.3,3.1-5,5.1c-1.7,2-3.2,4.2-4.6,6.4
		c-1.2,3.3-2.5,6.8-3.8,10.5C601.2,153.3,599.9,156.9,598.7,160.3L598.7,160.3z"/>
</g>
</svg>
